<svg version="1.1" id="Layer_1" xmlns="http://www.w3.org/2000/svg" xmlns:xlink="http://www.w3.org/1999/xlink" x="0px" y="0px" width="100%" viewBox="0 0 768 768" enable-background="new 0 0 768 768" xml:space="preserve">

<path fill="#CBCBCB" opacity="1.000000" stroke="none" d="
M2.998950,513.000000 
	C2.998949,342.892914 2.998949,173.285843 2.998949,3.339073 
	C257.797333,3.339073 512.015503,3.339073 766.616943,3.339073 
	C766.616943,257.711365 766.616943,511.929810 766.616943,766.574341 
	C512.380859,766.574341 258.162170,766.574341 2.998951,766.574341 
	C2.998951,682.293762 2.998951,597.896912 2.998950,513.000000 
M765.002014,724.500000 
	C765.002014,484.774017 765.002014,245.048050 765.002014,5.411220 
	C511.193329,5.411220 258.301544,5.411220 5.367637,5.411220 
	C5.367637,258.713806 5.367637,511.604614 5.367637,764.673096 
	C258.627716,764.673096 511.518188,764.673096 764.263367,764.673096 
	C764.562683,764.063232 764.827148,763.774902 764.828796,763.485107 
	C764.901062,750.823486 764.950134,738.161743 765.002014,724.500000 
z" data-index="1" style="visibility: hidden;"></path>

<path fill="#040404" opacity="1.000000" stroke="none" d="
M733.207886,326.687317 
	C738.567200,358.316864 739.506897,389.647217 736.320862,421.135101 
	C731.118469,472.550903 715.712891,520.717957 688.905273,564.846191 
	C636.293335,651.451233 560.884888,708.089233 461.714844,729.752197 
	C350.585480,754.027710 249.469101,729.605347 161.126999,657.894958 
	C94.627060,603.914612 52.781803,533.872192 38.034073,449.315308 
	C17.645222,332.414825 48.529560,229.501633 129.194717,142.683563 
	C183.238403,84.517601 250.526352,48.787865 329.227570,36.964840 
	C442.794525,19.904053 542.587158,50.800579 626.831421,128.649368 
	C684.206848,181.669159 719.000854,247.813721 733.011841,324.762268 
	C733.101074,325.252380 733.089966,325.760712 733.207886,326.687317 
M619.204224,629.710999 
	C630.022339,617.727661 641.710022,606.412598 651.516602,593.651855 
	C712.334961,514.512817 735.092896,425.285767 718.456360,326.951508 
	C705.686707,251.473129 670.512939,186.997177 613.358093,136.117661 
	C521.446472,54.297398 414.511566,27.539251 295.529877,59.356682 
	C197.078644,85.683983 125.413422,147.271423 80.300514,238.522446 
	C46.180813,307.537292 37.880802,380.462402 53.917828,455.750580 
	C70.426193,533.251526 109.687897,597.516357 171.115814,647.334717 
	C249.702682,711.068970 339.891357,735.068115 439.789764,719.523254 
	C508.600250,708.815796 568.084961,678.066650 619.204224,629.710999 
z" data-index="3" style="visibility: hidden;"></path>
<path fill="#FDFDFD" opacity="1.000000" stroke="none" d="
M618.926025,629.929688 
	C568.084961,678.066650 508.600250,708.815796 439.789764,719.523254 
	C339.891357,735.068115 249.702682,711.068970 171.115814,647.334717 
	C109.687897,597.516357 70.426193,533.251526 53.917828,455.750580 
	C37.880802,380.462402 46.180813,307.537292 80.300514,238.522446 
	C125.413422,147.271423 197.078644,85.683983 295.529877,59.356682 
	C414.511566,27.539251 521.446472,54.297398 613.358093,136.117661 
	C670.512939,186.997177 705.686707,251.473129 718.456360,326.951508 
	C735.092896,425.285767 712.334961,514.512817 651.516602,593.651855 
	C641.710022,606.412598 630.022339,617.727661 618.926025,629.929688 
M92.372658,444.866364 
	C89.098953,447.946381 86.054817,451.330658 82.487755,454.021820 
	C78.835098,456.777557 78.495560,459.847107 79.369713,463.990631 
	C85.065979,490.991241 94.446640,516.662659 107.219254,541.066650 
	C136.857239,597.694519 180.046158,640.530945 237.677322,668.554321 
	C269.963806,684.253662 304.118378,693.715576 339.533173,698.833557 
	C350.159515,700.369202 360.877655,701.269897 371.997620,702.510986 
	C371.997620,700.749329 372.009949,699.783142 371.995880,698.817383 
	C371.459045,662.028625 370.892487,625.240295 370.389740,588.451050 
	C370.007416,560.477234 369.688110,532.502502 369.372833,504.527863 
	C369.020111,473.224915 368.732391,441.921173 368.361847,410.618439 
	C368.076080,386.474274 367.672821,362.331543 367.380035,338.187469 
	C366.691528,281.408142 366.012024,224.628662 365.382233,167.848633 
	C365.107056,143.036224 364.947693,118.222481 364.767456,93.409119 
	C364.711151,85.657219 364.758698,77.904564 364.758698,69.906334 
	C361.965485,70.048767 360.152344,70.056656 358.358215,70.245316 
	C328.641052,73.370293 299.709778,80.004974 271.567108,90.003754 
	C223.676163,107.018852 180.994370,132.378647 145.951477,169.609192 
	C109.833832,207.981567 87.551315,253.601379 75.788345,304.711517 
	C74.541336,310.129822 75.623795,313.359375 79.720100,317.049103 
	C98.891457,334.317719 117.733177,351.952393 136.685257,369.464325 
	C142.737228,375.056396 148.766342,380.673248 154.875290,386.343170 
	C133.956757,405.944702 113.433434,425.175934 92.372658,444.866364 
M477.373047,555.498169 
	C477.040222,516.685608 476.688049,477.873230 476.379669,439.060486 
	C476.024933,394.414886 475.692780,349.769104 475.381317,305.123199 
	C475.147705,271.636078 474.908417,238.148712 474.841553,204.661118 
	C474.835083,201.429901 473.678284,200.530075 470.792511,199.751328 
	C453.150726,194.990494 435.580719,189.964249 417.975983,185.065323 
	C409.753876,182.777313 401.507568,180.576431 392.873474,178.227585 
	C392.873474,180.636093 392.858124,182.292877 392.875793,183.949280 
	C393.124451,207.268402 393.382538,230.587402 393.628387,253.906540 
	C393.970764,286.385651 394.314606,318.864716 394.639740,351.343994 
	C394.979919,385.320709 395.289886,419.297699 395.629242,453.274414 
	C395.951965,485.588776 396.322083,517.902649 396.623260,550.217224 
	C396.985016,589.032410 397.318268,627.847900 397.615143,666.663635 
	C397.703735,678.246582 397.628815,689.830750 397.628815,701.481506 
	C427.133118,698.995972 472.263184,688.232056 504.428253,675.918884 
	C557.377319,655.649414 602.997803,625.102051 638.019775,579.896118 
	C668.294922,540.817505 686.503479,496.475342 694.903381,447.967712 
	C697.739380,431.590759 699.444397,415.083405 698.884766,397.639526 
	C672.561157,397.639526 646.510071,397.639526 620.300110,397.639526 
	C620.247131,397.832031 620.080872,398.286804 619.998596,398.756287 
	C613.620544,435.157227 603.152588,470.206085 585.368774,502.799988 
	C566.242004,537.855347 540.807495,567.006165 505.449738,586.491333 
	C496.869537,591.219727 487.565155,594.634033 477.373047,599.199402 
	C477.373047,583.782288 477.373047,570.139709 477.373047,555.498169 
M689.953796,310.621429 
	C681.344727,276.821198 669.355591,244.340790 652.124023,213.915985 
	C625.556213,167.006592 589.795532,129.430603 540.913025,105.501411 
	C529.100464,99.718849 516.632935,95.274300 504.405182,90.188957 
	C503.879150,91.689232 503.679077,91.996651 503.676056,92.306015 
	C503.414581,118.789978 503.129150,145.273941 503.038879,171.758575 
	C503.034454,173.060104 504.450317,174.980316 505.700256,175.580078 
	C524.137451,184.427414 539.788879,196.964249 553.605896,211.832352 
	C584.678833,245.268936 602.572266,285.453918 612.911804,329.349030 
	C615.833435,341.752319 617.900391,354.356934 620.343079,366.786804 
	C646.823792,366.786804 673.225098,366.786804 700.804443,366.786804 
	C697.158264,347.973785 693.618408,329.709137 689.953796,310.621429 
M444.062866,159.425491 
	C454.205322,161.853027 464.347778,164.280579 474.407349,166.688278 
	C474.407349,139.270782 474.407349,112.229256 474.407349,84.849243 
	C446.740662,80.232864 419.592041,75.702927 392.237000,71.138550 
	C392.237000,96.516495 392.237000,121.722511 392.237000,147.153809 
	C409.358276,151.195633 426.308044,155.196960 444.062866,159.425491 
M71.859413,370.501495 
	C71.859413,391.531738 71.859413,412.561981 71.859413,433.592224 
	C72.467010,433.706085 73.074600,433.819946 73.682198,433.933838 
	C91.849968,417.116913 110.017738,400.299988 128.443314,383.244446 
	C109.289246,367.284271 90.596855,351.708771 71.870697,336.105133 
	C71.870697,347.637970 71.870697,358.569641 71.859413,370.501495 
z" data-index="4"></path>
<path fill="#010101" opacity="1.000000" stroke="none" d="
M92.641380,444.636780 
	C113.433434,425.175934 133.956757,405.944702 154.875290,386.343170 
	C148.766342,380.673248 142.737228,375.056396 136.685257,369.464325 
	C117.733177,351.952393 98.891457,334.317719 79.720100,317.049103 
	C75.623795,313.359375 74.541336,310.129822 75.788345,304.711517 
	C87.551315,253.601379 109.833832,207.981567 145.951477,169.609192 
	C180.994370,132.378647 223.676163,107.018852 271.567108,90.003754 
	C299.709778,80.004974 328.641052,73.370293 358.358215,70.245316 
	C360.152344,70.056656 361.965485,70.048767 364.758698,69.906334 
	C364.758698,77.904564 364.711151,85.657219 364.767456,93.409119 
	C364.947693,118.222481 365.107056,143.036224 365.382233,167.848633 
	C366.012024,224.628662 366.691528,281.408142 367.380035,338.187469 
	C367.672821,362.331543 368.076080,386.474274 368.361847,410.618439 
	C368.732391,441.921173 369.020111,473.224915 369.372833,504.527863 
	C369.688110,532.502502 370.007416,560.477234 370.389740,588.451050 
	C370.892487,625.240295 371.459045,662.028625 371.995880,698.817383 
	C372.009949,699.783142 371.997620,700.749329 371.997620,702.510986 
	C360.877655,701.269897 350.159515,700.369202 339.533173,698.833557 
	C304.118378,693.715576 269.963806,684.253662 237.677322,668.554321 
	C180.046158,640.530945 136.857239,597.694519 107.219254,541.066650 
	C94.446640,516.662659 85.065979,490.991241 79.369713,463.990631 
	C78.495560,459.847107 78.835098,456.777557 82.487755,454.021820 
	C86.054817,451.330658 89.098953,447.946381 92.641380,444.636780 
M286.873322,245.496887 
	C286.584045,218.474030 286.294800,191.451172 285.999969,163.906128 
	C257.486420,175.679749 232.038513,190.775986 210.205307,211.588867 
	C192.192245,228.760147 178.420349,248.601822 171.813843,272.957336 
	C171.116257,275.529083 171.372330,277.080902 173.262344,279.058014 
	C193.052414,299.760345 212.714935,320.584595 232.415375,341.372620 
	C244.760406,354.399200 257.109863,367.421600 269.525970,380.518250 
	C268.715576,381.528534 268.143768,382.340942 267.473785,383.062195 
	C237.787216,415.019257 208.098206,446.974091 178.393997,478.914764 
	C169.577057,488.395538 169.449051,489.086823 175.101761,500.841766 
	C175.245407,501.140503 175.419037,501.424713 175.565079,501.722382 
	C182.277054,515.405090 192.278809,526.528015 203.258011,536.808044 
	C226.501297,558.571106 253.143616,575.522949 280.768463,591.048035 
	C283.310028,592.476379 285.879578,593.854980 289.087067,595.613586 
	C288.345459,478.659271 287.609375,362.578461 286.873322,245.496887 
z" data-index="5"></path>
<path fill="#010101" opacity="1.000000" stroke="none" d="
M477.373047,555.997620 
	C477.373047,570.139709 477.373047,583.782288 477.373047,599.199402 
	C487.565155,594.634033 496.869537,591.219727 505.449738,586.491333 
	C540.807495,567.006165 566.242004,537.855347 585.368774,502.799988 
	C603.152588,470.206085 613.620544,435.157227 619.998596,398.756287 
	C620.080872,398.286804 620.247131,397.832031 620.300110,397.639526 
	C646.510071,397.639526 672.561157,397.639526 698.884766,397.639526 
	C699.444397,415.083405 697.739380,431.590759 694.903381,447.967712 
	C686.503479,496.475342 668.294922,540.817505 638.019775,579.896118 
	C602.997803,625.102051 557.377319,655.649414 504.428253,675.918884 
	C472.263184,688.232056 427.133118,698.995972 397.628815,701.481506 
	C397.628815,689.830750 397.703735,678.246582 397.615143,666.663635 
	C397.318268,627.847900 396.985016,589.032410 396.623260,550.217224 
	C396.322083,517.902649 395.951965,485.588776 395.629242,453.274414 
	C395.289886,419.297699 394.979919,385.320709 394.639740,351.343994 
	C394.314606,318.864716 393.970764,286.385651 393.628387,253.906540 
	C393.382538,230.587402 393.124451,207.268402 392.875793,183.949280 
	C392.858124,182.292877 392.873474,180.636093 392.873474,178.227585 
	C401.507568,180.576431 409.753876,182.777313 417.975983,185.065323 
	C435.580719,189.964249 453.150726,194.990494 470.792511,199.751328 
	C473.678284,200.530075 474.835083,201.429901 474.841553,204.661118 
	C474.908417,238.148712 475.147705,271.636078 475.381317,305.123199 
	C475.692780,349.769104 476.024933,394.414886 476.379669,439.060486 
	C476.688049,477.873230 477.040222,516.685608 477.373047,555.997620 
z" data-index="6"></path>
<path fill="#010101" opacity="1.000000" stroke="none" d="
M690.016174,311.032959 
	C693.618408,329.709137 697.158264,347.973785 700.804443,366.786804 
	C673.225098,366.786804 646.823792,366.786804 620.343079,366.786804 
	C617.900391,354.356934 615.833435,341.752319 612.911804,329.349030 
	C602.572266,285.453918 584.678833,245.268936 553.605896,211.832352 
	C539.788879,196.964249 524.137451,184.427414 505.700256,175.580078 
	C504.450317,174.980316 503.034454,173.060104 503.038879,171.758575 
	C503.129150,145.273941 503.414581,118.789978 503.676056,92.306015 
	C503.679077,91.996651 503.879150,91.689232 504.405182,90.188957 
	C516.632935,95.274300 529.100464,99.718849 540.913025,105.501411 
	C589.795532,129.430603 625.556213,167.006592 652.124023,213.915985 
	C669.355591,244.340790 681.344727,276.821198 690.016174,311.032959 
z" data-index="7"></path>
<path fill="#010101" opacity="1.000000" stroke="none" d="
M443.660339,159.311890 
	C426.308044,155.196960 409.358276,151.195633 392.237000,147.153809 
	C392.237000,121.722511 392.237000,96.516495 392.237000,71.138550 
	C419.592041,75.702927 446.740662,80.232864 474.407349,84.849243 
	C474.407349,112.229256 474.407349,139.270782 474.407349,166.688278 
	C464.347778,164.280579 454.205322,161.853027 443.660339,159.311890 
z" data-index="8"></path>
<path fill="#030303" opacity="1.000000" stroke="none" d="
M71.865051,370.001404 
	C71.870697,358.569641 71.870697,347.637970 71.870697,336.105133 
	C90.596855,351.708771 109.289246,367.284271 128.443314,383.244446 
	C110.017738,400.299988 91.849968,417.116913 73.682198,433.933838 
	C73.074600,433.819946 72.467010,433.706085 71.859413,433.592224 
	C71.859413,412.561981 71.859413,391.531738 71.865051,370.001404 
z" data-index="9"></path>
<path fill="#FEFEFE" opacity="1.000000" stroke="none" d="
M286.873291,245.997269 
	C287.609375,362.578461 288.345459,478.659271 289.087067,595.613586 
	C285.879578,593.854980 283.310028,592.476379 280.768463,591.048035 
	C253.143616,575.522949 226.501297,558.571106 203.258011,536.808044 
	C192.278809,526.528015 182.277054,515.405090 175.565079,501.722382 
	C175.419037,501.424713 175.245407,501.140503 175.101761,500.841766 
	C169.449051,489.086823 169.577057,488.395538 178.393997,478.914764 
	C208.098206,446.974091 237.787216,415.019257 267.473785,383.062195 
	C268.143768,382.340942 268.715576,381.528534 269.525970,380.518250 
	C257.109863,367.421600 244.760406,354.399200 232.415375,341.372620 
	C212.714935,320.584595 193.052414,299.760345 173.262344,279.058014 
	C171.372330,277.080902 171.116257,275.529083 171.813843,272.957336 
	C178.420349,248.601822 192.192245,228.760147 210.205307,211.588867 
	C232.038513,190.775986 257.486420,175.679749 285.999969,163.906128 
	C286.294800,191.451172 286.584045,218.474030 286.873291,245.997269 
z" data-index="10"></path>
</svg>